<svg id="Layer_1" data-name="Layer 1" xmlns="http://www.w3.org/2000/svg" viewBox="0 0 30 25"><defs><style>.cls-1{fill:#fff;}</style></defs><polygon class="cls-1" points="22.91 14.07 28.24 19.2 22.94 24.79 21.49 23.43 24.32 20.44 16.67 20.44 12.8 14.36 9.12 20.14 1.76 20.14 1.76 18.15 8.04 18.15 11.63 12.5 8.04 6.85 1.76 6.85 1.76 4.86 9.12 4.86 12.8 10.64 16.67 4.56 24.32 4.56 21.49 1.57 22.94 0.21 28.24 5.8 22.91 10.93 21.53 9.49 24.59 6.55 17.75 6.55 13.98 12.5 17.75 18.45 24.59 18.45 21.53 15.51 22.91 14.07"/></svg>